<svg width="24" height="24" viewBox="0 0 20 17" fill="none" xmlns="http://www.w3.org/2000/svg">
<path d="M10 16.6666C9.33337 16.1388 8.61115 15.7291 7.83337 15.4375C7.0556 15.1458 6.25004 15 5.41671 15C4.83337 15 4.26046 15.0763 3.69796 15.2291C3.13546 15.3819 2.59726 15.5972 2.08337 15.875C1.79171 16.0277 1.51046 16.0208 1.23962 15.8541C0.968791 15.6875 0.833374 15.4444 0.833374 15.125V5.08329C0.833374 4.93051 0.871568 4.78468 0.947957 4.64579C1.02435 4.5069 1.13893 4.40274 1.29171 4.33329C1.9306 3.99996 2.59726 3.74996 3.29171 3.58329C3.98615 3.41663 4.69449 3.33329 5.41671 3.33329C6.22226 3.33329 7.01046 3.43746 7.78129 3.64579C8.55212 3.85413 9.29171 4.16663 10 4.58329V15.125C10.7084 14.6666 11.4514 14.3229 12.2292 14.0937C13.007 13.8645 13.7917 13.75 14.5834 13.75C15.0834 13.75 15.6285 13.7986 16.2188 13.8958C16.8091 13.993 17.375 14.1944 17.9167 14.5V3.97913C18.054 4.03121 18.189 4.0859 18.3218 4.14319C18.4545 4.20048 18.5834 4.26385 18.7084 4.33329C18.8473 4.41663 18.9584 4.52549 19.0417 4.6599C19.125 4.79431 19.1667 4.93545 19.1667 5.08329V15.125C19.1667 15.4444 19.0313 15.6875 18.7605 15.8541C18.4896 16.0208 18.2084 16.0277 17.9167 15.875C17.4028 15.5972 16.8646 15.3819 16.3021 15.2291C15.7396 15.0763 15.1667 15 14.5834 15C13.75 15 12.9445 15.1458 12.1667 15.4375C11.3889 15.7291 10.6667 16.1388 10 16.6666ZM11.25 13.1875V5.83329L16.6667 0.416626V8.47913L11.25 13.1875ZM8.75004 14.5V5.35413C8.27782 5.09024 7.72921 4.89579 7.10421 4.77079C6.47921 4.64579 5.91671 4.58329 5.41671 4.58329C4.76393 4.58329 4.15629 4.65274 3.59379 4.79163C3.03129 4.93051 2.52782 5.10783 2.08337 5.32356V14.5C2.56949 14.2638 3.09379 14.0798 3.65629 13.9479C4.21879 13.8159 4.80907 13.75 5.42712 13.75C6.04518 13.75 6.63199 13.8159 7.18754 13.9479C7.7431 14.0798 8.26393 14.2638 8.75004 14.5Z" fill="url(#paint0_linear_13_8)"/>
<defs>
<linearGradient id="paint0_linear_13_8" x1="10" y1="0.416626" x2="10" y2="16.6666" gradientUnits="userSpaceOnUse">
<stop stop-color="#FFBF00"/>
<stop offset="1" stop-color="#FFEA00"/>
</linearGradient>
</defs>
</svg>
