<svg width="24" height="24" viewBox="0 0 30 30" fill="none" xmlns="http://www.w3.org/2000/svg">
<path d="M15.8125 19.5875C15.9875 19.1375 15.875 18.625 15.525 18.275L12.9125 15.7L12.95 15.6625C15.125 13.2375 16.675 10.45 17.5875 7.5H20.0125C20.6875 7.5 21.25 6.9375 21.25 6.2625V6.2375C21.25 5.5625 20.6875 5 20.0125 5H12.5V3.75C12.5 3.0625 11.9375 2.5 11.25 2.5C10.5625 2.5 10 3.0625 10 3.75V5H2.4875C1.8125 5 1.25 5.5625 1.25 6.2375C1.25 6.925 1.8125 7.475 2.4875 7.475H15.2125C14.375 9.9 13.05 12.1875 11.25 14.1875C10.2375 13.075 9.3875 11.8625 8.675 10.5875C8.475 10.225 8.1125 10 7.7 10C6.8375 10 6.2875 10.9375 6.7125 11.6875C7.5 13.1 8.4625 14.45 9.5875 15.7L4.125 21.0875C3.625 21.575 3.625 22.375 4.125 22.8625C4.6125 23.35 5.4 23.35 5.9 22.8625L11.25 17.5L13.775 20.025C14.4125 20.6625 15.5 20.425 15.8125 19.5875ZM21.875 12.5C21.125 12.5 20.45 12.9625 20.1875 13.675L15.6 25.925C15.3 26.6875 15.875 27.5 16.6875 27.5C17.175 27.5 17.6125 27.2 17.7875 26.7375L18.9 23.75H24.8375L25.9625 26.7375C26.1375 27.1875 26.575 27.5 27.0625 27.5C27.875 27.5 28.45 26.6875 28.1625 25.925L23.575 13.675C23.3 12.9625 22.625 12.5 21.875 12.5ZM19.85 21.25L21.875 15.8375L23.9 21.25H19.85Z" fill="url(#paint0_linear_121_50)"/>
<defs>
<linearGradient id="paint0_linear_121_50" x1="14.7438" y1="2.5" x2="14.7438" y2="27.5" gradientUnits="userSpaceOnUse">
<stop stop-color="#FFBF00"/>
<stop offset="1" stop-color="#FFEA00"/>
</linearGradient>
</defs>
</svg>
