<svg width="159" height="36" viewBox="0 0 159 36" fill="none" xmlns="http://www.w3.org/2000/svg">
<path d="M29.512 1.64L20.68 35H9.35201L0.0880127 1.64H9.44801L15.16 28.52L20.44 1.64H29.512Z" fill="#141414"/>
<path d="M40.0814 1.64V35H31.2014V1.64H40.0814Z" fill="#141414"/>
<path d="M59.4719 0.776001C61.5839 0.776001 63.4879 1.096 65.1839 1.736C66.8799 2.376 68.4639 3.32 69.9359 4.568L65.7599 9.512C64.7679 8.776 63.8079 8.216 62.8799 7.832C61.9519 7.448 60.9599 7.256 59.9039 7.256C57.7919 7.256 56.1439 8.168 54.9599 9.992C53.7759 11.816 53.1839 14.568 53.1839 18.248C53.1839 21.928 53.7759 24.664 54.9599 26.456C56.1759 28.248 57.8559 29.144 59.9999 29.144C61.1519 29.144 62.2079 28.92 63.1679 28.472C64.1599 27.992 65.2319 27.304 66.3839 26.408L70.3199 31.4C69.0079 32.712 67.4239 33.784 65.5679 34.616C63.7439 35.448 61.7599 35.864 59.6159 35.864C56.4479 35.864 53.6799 35.192 51.3119 33.848C48.9759 32.472 47.1679 30.472 45.8879 27.848C44.6079 25.192 43.9679 21.992 43.9679 18.248C43.9679 14.6 44.6239 11.464 45.9359 8.84C47.2479 6.216 49.0719 4.216 51.4079 2.84C53.7439 1.464 56.4319 0.776001 59.4719 0.776001Z" fill="#141414"/>
<path d="M96.352 1.64L95.44 8.408H87.568V35H78.688V8.408H70.336V1.64H96.352Z" fill="#141414"/>
<path d="M111.123 0.776001C115.955 0.776001 119.715 2.312 122.403 5.384C125.091 8.456 126.435 12.76 126.435 18.296C126.435 21.912 125.827 25.048 124.611 27.704C123.427 30.328 121.683 32.344 119.379 33.752C117.075 35.16 114.323 35.864 111.123 35.864C106.291 35.864 102.531 34.328 99.8425 31.256C97.1865 28.184 95.8585 23.864 95.8585 18.296C95.8585 14.68 96.4505 11.56 97.6345 8.936C98.8505 6.312 100.595 4.296 102.867 2.888C105.171 1.48 107.923 0.776001 111.123 0.776001ZM111.123 7.16C109.043 7.16 107.507 8.024 106.515 9.752C105.555 11.48 105.075 14.328 105.075 18.296C105.075 22.264 105.571 25.128 106.563 26.888C107.555 28.616 109.075 29.48 111.123 29.48C113.235 29.48 114.771 28.616 115.731 26.888C116.691 25.16 117.171 22.296 117.171 18.296C117.171 14.328 116.691 11.48 115.731 9.752C114.771 8.024 113.235 7.16 111.123 7.16Z" fill="#141414"/>
<path d="M141.623 22.712H139.175V35H130.295V1.64H141.863C146.567 1.64 150.071 2.488 152.375 4.184C154.711 5.88 155.879 8.488 155.879 12.008C155.879 14.12 155.383 15.88 154.391 17.288C153.431 18.696 151.879 19.96 149.735 21.08L158.039 35H148.151L141.623 22.712ZM139.175 16.664H142.151C145.223 16.664 146.759 15.112 146.759 12.008C146.759 10.568 146.327 9.512 145.463 8.84C144.631 8.168 143.367 7.832 141.671 7.832H139.175V16.664Z" fill="#141414"/>
</svg>
